<mxfile host="app.diagrams.net" modified="2023-09-26T02:47:31.293Z" agent="Mozilla/5.0 (Windows NT 10.0; Win64; x64) AppleWebKit/537.36 (KHTML, like Gecko) Chrome/117.0.0.0 Safari/537.36 Edg/117.0.2045.41" etag="KBNqnVlSAJ3qoHIwZKat" version="21.8.2" type="github">
  <diagram name="Page-1" id="dd472eb7-4b8b-5cd9-a60b-b15522922e76">
    <mxGraphModel dx="1104" dy="647" grid="1" gridSize="10" guides="1" tooltips="1" connect="1" arrows="1" fold="1" page="1" pageScale="1" pageWidth="1100" pageHeight="850" background="none" math="0" shadow="0">
      <root>
        <mxCell id="0" />
        <mxCell id="1" parent="0" />
        <mxCell id="374e34682ed331ee-1" value="Field Signal&lt;br&gt;Task" style="ellipse;whiteSpace=wrap;html=1;rounded=0;shadow=0;dashed=0;comic=0;fontFamily=Verdana;fontSize=22;fontColor=#0069D1;fillColor=#f5f5f5;strokeColor=#666666;" parent="1" vertex="1">
          <mxGeometry x="460" y="242.5" width="196.25" height="187.5" as="geometry" />
        </mxCell>
        <mxCell id="45236fa5f4b8e91a-6" value="Chennel Compare &lt;br&gt;Task" style="ellipse;whiteSpace=wrap;html=1;rounded=0;shadow=0;dashed=0;comic=0;fontFamily=Verdana;fontSize=22;fontColor=#0069D1;fillColor=#f5f5f5;strokeColor=#666666;" parent="1" vertex="1">
          <mxGeometry x="340" y="90" width="130" height="110" as="geometry" />
        </mxCell>
        <mxCell id="DyRFvoeUUXTJoBCo-EYL-1" value="Stage Compare &lt;br&gt;Task" style="ellipse;whiteSpace=wrap;html=1;rounded=0;shadow=0;dashed=0;comic=0;fontFamily=Verdana;fontSize=22;fontColor=#0069D1;fillColor=#f5f5f5;strokeColor=#666666;" vertex="1" parent="1">
          <mxGeometry x="700" y="130" width="130" height="110" as="geometry" />
        </mxCell>
        <mxCell id="DyRFvoeUUXTJoBCo-EYL-2" value="IOComm&lt;br&gt;Task" style="ellipse;whiteSpace=wrap;html=1;rounded=0;shadow=0;dashed=0;comic=0;fontFamily=Verdana;fontSize=22;fontColor=#0069D1;fillColor=#f5f5f5;strokeColor=#666666;" vertex="1" parent="1">
          <mxGeometry x="680" y="420" width="130" height="110" as="geometry" />
        </mxCell>
        <mxCell id="DyRFvoeUUXTJoBCo-EYL-3" value="" style="endArrow=classic;startArrow=classic;html=1;rounded=0;entryX=0.5;entryY=1;entryDx=0;entryDy=0;exitX=0;exitY=0;exitDx=0;exitDy=0;" edge="1" parent="1" source="374e34682ed331ee-1" target="45236fa5f4b8e91a-6">
          <mxGeometry width="50" height="50" relative="1" as="geometry">
            <mxPoint x="520" y="360" as="sourcePoint" />
            <mxPoint x="570" y="310" as="targetPoint" />
          </mxGeometry>
        </mxCell>
        <mxCell id="DyRFvoeUUXTJoBCo-EYL-4" value="" style="endArrow=classic;startArrow=classic;html=1;rounded=0;entryX=0;entryY=1;entryDx=0;entryDy=0;exitX=0.904;exitY=0.201;exitDx=0;exitDy=0;exitPerimeter=0;" edge="1" parent="1" source="374e34682ed331ee-1" target="DyRFvoeUUXTJoBCo-EYL-1">
          <mxGeometry width="50" height="50" relative="1" as="geometry">
            <mxPoint x="520" y="360" as="sourcePoint" />
            <mxPoint x="570" y="310" as="targetPoint" />
          </mxGeometry>
        </mxCell>
        <mxCell id="DyRFvoeUUXTJoBCo-EYL-5" value="" style="endArrow=classic;startArrow=classic;html=1;rounded=0;exitX=0.899;exitY=0.808;exitDx=0;exitDy=0;exitPerimeter=0;entryX=0;entryY=0.5;entryDx=0;entryDy=0;" edge="1" parent="1" source="374e34682ed331ee-1" target="DyRFvoeUUXTJoBCo-EYL-2">
          <mxGeometry width="50" height="50" relative="1" as="geometry">
            <mxPoint x="520" y="360" as="sourcePoint" />
            <mxPoint x="729" y="436" as="targetPoint" />
          </mxGeometry>
        </mxCell>
        <mxCell id="DyRFvoeUUXTJoBCo-EYL-6" value="Field UDP&lt;br&gt;Task" style="ellipse;whiteSpace=wrap;html=1;rounded=0;shadow=0;dashed=0;comic=0;fontFamily=Verdana;fontSize=22;fontColor=#0069D1;fillColor=#f5f5f5;strokeColor=#666666;" vertex="1" parent="1">
          <mxGeometry x="250" y="350" width="130" height="110" as="geometry" />
        </mxCell>
        <mxCell id="DyRFvoeUUXTJoBCo-EYL-7" value="" style="endArrow=classic;startArrow=classic;html=1;rounded=0;exitX=1.005;exitY=0.585;exitDx=0;exitDy=0;exitPerimeter=0;entryX=0;entryY=1;entryDx=0;entryDy=0;" edge="1" parent="1" source="DyRFvoeUUXTJoBCo-EYL-6" target="374e34682ed331ee-1">
          <mxGeometry width="50" height="50" relative="1" as="geometry">
            <mxPoint x="520" y="360" as="sourcePoint" />
            <mxPoint x="570" y="310" as="targetPoint" />
          </mxGeometry>
        </mxCell>
      </root>
    </mxGraphModel>
  </diagram>
</mxfile>
